<svg xmlns="http://www.w3.org/2000/svg" width="24" height="24" viewBox="0 0 24 24">
    <defs>
        <linearGradient id="a" x1="50%" x2="50%" y1="0%" y2="100%">
            <stop offset="0%" stop-color="#091D2F"/>
            <stop offset="100%" stop-color="#12AAC1"/>
        </linearGradient>
    </defs>
    <g fill="none" fill-rule="evenodd">
        <path fill="url(#a)" d="M3.335 11.912l.982 2.586 2.785-.054 2.838-3.73 3.044 3.784h2.51l1.127-2.693-3.007-9.683L6.47 2.05z" transform="translate(2 3)"/>
        <path fill="#9A6A36" stroke="#1C1C1F" d="M20.254 17.363l-.428.907h-2.169l1.195-2.923h.469L15.824 4.589H8.14L4.644 15.347h.469l1.194 2.923H4.138l-.428-.907H1.876L6.662 2.5h4.919l.401.476.402-.476h4.918l4.786 14.863h-1.834zm-10.864.633l2.675-3.638 2.74 3.614h4.865l.476-1.017h1.7l.868 2.09h-1.34l-.357.895h-2.436L18 21.39H6.095l-.68-1.379H3.152l-.5-1.016H1.266l.77-1.955 1.989.014.356.941H9.39zm7.727-1.052l.897-2.157-2.81-9.137-6.338-.026-2.918 9.294.767 2.001h2.07l3.134-4.146 3.319 4.17h1.879zm-5.168-2.064l-2.521 3.33H5.832L4.587 14.96 7.923 4.33l8.232.035.108.351.031.102L19.38 14.85l-1.401 3.384h-3.36L11.95 14.88z"/>
    </g>
</svg>
